<?xml version="1.0" encoding="UTF-8" standalone="no"?>
<svg
   id="_レイヤー_2"
   data-name="レイヤー 2"
   viewBox="0 0 251.69 126.31"
   version="1.1"
   sodipodi:docname="icon_fuji.svg"
   xml:space="preserve"
   inkscape:version="1.2.2 (732a01da63, 2022-12-09)"
   xmlns:inkscape="http://www.inkscape.org/namespaces/inkscape"
   xmlns:sodipodi="http://sodipodi.sourceforge.net/DTD/sodipodi-0.dtd"
   xmlns="http://www.w3.org/2000/svg"
   xmlns:svg="http://www.w3.org/2000/svg"><sodipodi:namedview
     id="namedview731"
     pagecolor="#ffffff"
     bordercolor="#000000"
     borderopacity="0.25"
     inkscape:showpageshadow="2"
     inkscape:pageopacity="0.0"
     inkscape:pagecheckerboard="0"
     inkscape:deskcolor="#d1d1d1"
     showgrid="false"
     inkscape:zoom="5.3319559"
     inkscape:cx="125.845"
     inkscape:cy="63.203823"
     inkscape:window-width="3840"
     inkscape:window-height="2066"
     inkscape:window-x="-11"
     inkscape:window-y="-11"
     inkscape:window-maximized="1"
     inkscape:current-layer="_レイヤー_2" /><defs
     id="defs715"><style
       id="style713">
      .cls-1 {
        stroke-linecap: round;
        stroke-linejoin: round;
      }

      .cls-1, .cls-2 {
        fill: none;
        stroke: #e50012;
        stroke-width: 3.82px;
      }

      .cls-2 {
        stroke-miterlimit: 10;
      }

      .cls-3 {
        fill: #fff;
        stroke-width: 0px;
      }
    </style></defs><style
     type="text/css"
     id="style733">
	.st0{fill:#000000;}
</style><style
     type="text/css"
     id="style756">
	.st0{fill:#000000;}
</style><style
     type="text/css"
     id="style790">
	.st0{fill:#000000;}
</style><g
     id="g800"
     transform="matrix(0.23452288,0,0,0.23452288,132.76174,6.3542999)">
	<path
   class="st0"
   d="m 114.533,466.01 c 2.234,8.844 7.576,16.924 16.924,16.924 8.936,0 15.968,0 24.904,0 9.34,0 14.096,-4.682 16.916,-16.924 l 9.612,-59.535 36.593,-212.837 -112.202,227.8 z"
   id="path792" />
	<path
   class="st0"
   d="m 225.845,148.201 c -6.109,-5.194 -13.932,-4.139 -19.785,0 l -59.608,37.375 1.443,-7.576 54.637,-35.059 c 1.254,-0.865 2.589,-1.533 3.958,-2.102 -4.584,-3.684 -9.827,-6.512 -15.358,-8.688 l 9.265,-12.959 c 0,0 -11.013,-3.668 -24.648,-6.677 1.08,-2.085 2.102,-4.171 2.968,-6.248 11.714,-5.935 19.166,-25.225 15.604,-28.012 -1.994,-1.566 -5.894,0.223 -9.439,2.523 1.442,-18.325 -3.42,-33.114 -6.158,-38.473 -4.674,-9.166 -21.804,1.822 -32.71,1.822 -10.898,0 -28.036,-10.989 -32.702,-1.822 -2.72,5.317 -7.526,19.933 -6.191,38.077 -3.38,-2.102 -6.941,-3.603 -8.829,-2.127 -3.47,2.729 3.586,21.236 14.855,27.591 0.931,2.25 2.019,4.517 3.214,6.793 -13.403,2.984 -24.136,6.553 -24.136,6.553 l 8.82,12.349 c -22.686,7.906 -43.303,25.168 -37.97,62.436 L 99.25,423.432 223.676,170.796 c 3.298,-7.336 9.703,-16.19 2.169,-22.595 z m -89.796,-41.893 c -2.482,1.484 -3.479,-11.434 -3.479,-11.434 h 6.966 7.46 7.453 6.966 c 0,0 -0.998,12.918 -3.487,11.434 -2.482,-1.493 -3.479,-6.958 -3.479,-6.958 h -7.453 -7.46 c 0,0 -0.989,5.465 -3.487,6.958 z"
   id="path794" />
	<path
   class="st0"
   d="m 215.013,20.345 43.583,154.028 c 0.816,2.852 1.063,9.431 0.461,12.341 L 196.828,491.655 H 156.93 134.326 94.419 L 32.19,186.722 c -0.594,-2.918 -0.347,-9.496 0.453,-12.349 L 76.242,20.345 h 58.084 22.604 58.083 M 219.094,0 H 156.93 c -6.216,0 -16.388,0 -22.604,0 H 72.162 C 65.947,0 59.476,4.897 57.777,10.873 L 13.073,168.834 c -1.69,5.985 -2.06,15.852 -0.816,21.952 L 75.55,500.921 c 1.244,6.1 7.345,11.079 13.568,11.079 h 45.207 c 6.216,0 16.388,0 22.604,0 h 45.207 c 6.215,0 12.323,-4.979 13.56,-11.079 l 63.301,-310.134 c 1.236,-6.1 0.874,-15.968 -0.816,-21.952 L 233.47,10.873 C 231.78,4.897 225.309,0 219.094,0 Z"
   id="path796" />
	<path
   class="st0"
   d="M 456.595,16.479 C 454.023,7.419 444.221,0 434.799,0 h -50.516 c -9.422,0 -24.838,0 -34.252,0 h -50.516 c -9.422,0 -19.223,7.419 -21.787,16.479 L 236.19,163.228 c -2.564,9.06 -3.125,24.03 -1.236,33.263 l 60.96,298.725 c 1.888,9.233 11.137,16.784 20.551,16.784 h 33.568 c 9.414,0 24.829,0 34.252,0 h 33.568 c 9.414,0 18.663,-7.551 20.542,-16.784 l 60.968,-298.725 c 1.888,-9.233 1.327,-24.203 -1.236,-33.263 z m -20.691,167.077 c 0,6.95 -0.915,14.682 -2.036,17.163 -1.121,2.49 -14.706,4.518 -24.12,4.518 h -5.499 c -9.422,0 -17.13,7.708 -17.13,17.121 v 75.972 c 0,9.415 -0.915,19.158 -2.036,21.639 -1.112,2.49 -12.686,4.526 -19.652,4.526 -6.949,0 -14.682,-0.923 -17.163,-2.036 -2.481,-1.121 -4.518,-14.714 -4.518,-24.129 v -75.972 c 0,-9.414 -7.707,-17.121 -17.121,-17.121 h -5.498 c -9.423,0 -19.167,-0.915 -21.639,-2.036 -2.489,-1.121 -4.526,-12.695 -4.526,-19.645 0,-6.966 0.915,-14.69 2.037,-17.17 1.112,-2.482 14.706,-4.518 24.128,-4.518 h 5.498 c 9.414,0 17.121,-7.708 17.121,-17.122 v -25.374 c 0,-9.422 0.915,-19.166 2.037,-21.647 1.121,-2.482 12.695,-4.518 19.644,-4.518 6.966,0 14.69,0.915 17.171,2.036 2.481,1.113 4.517,14.706 4.517,24.128 v 25.374 c 0,9.414 7.708,17.122 17.13,17.122 h 5.499 c 9.414,0 19.15,0.923 21.639,2.036 2.48,1.122 4.517,12.688 4.517,19.653 z"
   id="path798" />
</g></svg>
