<?xml version="1.0" encoding="UTF-8" standalone="no"?>
<svg
   id="_レイヤー_2"
   data-name="レイヤー 2"
   viewBox="0 0 151.13 151.13"
   version="1.1"
   sodipodi:docname="icon_sun_red.svg"
   xml:space="preserve"
   inkscape:version="1.2.2 (732a01da63, 2022-12-09)"
   xmlns:inkscape="http://www.inkscape.org/namespaces/inkscape"
   xmlns:sodipodi="http://sodipodi.sourceforge.net/DTD/sodipodi-0.dtd"
   xmlns="http://www.w3.org/2000/svg"
   xmlns:svg="http://www.w3.org/2000/svg"><sodipodi:namedview
     id="namedview596"
     pagecolor="#ffffff"
     bordercolor="#000000"
     borderopacity="0.25"
     inkscape:showpageshadow="2"
     inkscape:pageopacity="0.0"
     inkscape:pagecheckerboard="0"
     inkscape:deskcolor="#d1d1d1"
     showgrid="false"
     inkscape:zoom="6.7954739"
     inkscape:cx="75.491424"
     inkscape:cy="75.491424"
     inkscape:window-width="3840"
     inkscape:window-height="2066"
     inkscape:window-x="-11"
     inkscape:window-y="-11"
     inkscape:window-maximized="1"
     inkscape:current-layer="_レイヤー_2" /><defs
     id="defs590"><style
       id="style588">
      .cls-1 {
        fill: #e50012;
        stroke-width: 0px;
      }
    </style></defs><g
     style="fill:#000000"
     id="g618"
     transform="matrix(0.32261535,0,0,0.32261535,78.364175,0.81255927)"><g
       id="g606">
	<g
   id="g604">
		<path
   d="m 206.66,151.69 c -2.051,0 -4.027,0.621 -5.713,1.795 -16.465,11.475 -35.813,17.539 -55.947,17.539 -54.039,0 -98,-43.963 -98,-98 C 47,52.888 53.064,33.542 64.537,17.075 67.31,13.096 66.834,7.718 63.404,4.287 61.515,2.398 59.002,1.358 56.328,1.358 54.277,1.358 52.303,1.979 50.615,3.153 18.921,25.237 0,61.451 0,100.024 c 0,65.064 52.934,118 118,118 38.572,0 74.785,-18.922 96.869,-50.617 2.773,-3.98 2.297,-9.357 -1.133,-12.788 -1.888,-1.889 -4.402,-2.929 -7.076,-2.929 z"
   id="path598" />
		<path
   d="m 105.222,75.381 h 50.326 c 13.144,0 23.798,-10.655 23.798,-23.798 0,-13.144 -10.654,-23.798 -23.798,-23.798 -2.918,0 -5.71,0.527 -8.293,1.486 0.013,-0.299 0.022,-0.599 0.022,-0.901 0,-13.143 -10.654,-23.798 -23.797,-23.798 -13.145,0 -23.798,10.655 -23.798,23.798 0,0.023 0.001,0.046 0.002,0.068 -10.472,2.497 -18.261,11.909 -18.261,23.145 0.001,13.143 10.656,23.798 23.799,23.798 z"
   id="path600" />
		<path
   d="m 169.676,93.877 c 0,0.016 0,0.029 0.001,0.043 -6.532,1.559 -11.396,7.431 -11.396,14.441 0,8.2 6.648,14.851 14.851,14.851 h 31.401 c 8.199,0 14.849,-6.649 14.849,-14.851 0,-8.202 -6.647,-14.85 -14.849,-14.85 -1.82,0 -3.563,0.33 -5.174,0.928 0.006,-0.187 0.014,-0.373 0.014,-0.563 0,-8.199 -6.648,-14.849 -14.85,-14.849 -8.199,0.001 -14.847,6.65 -14.847,14.85 z"
   id="path602" />
	</g>
</g></g></svg>
