<?xml version="1.0" encoding="UTF-8" standalone="no"?>
<svg
   id="_レイヤー_2"
   data-name="レイヤー 2"
   viewBox="0 0 153.94 141.49"
   version="1.1"
   sodipodi:docname="icon_dice_01.svg"
   xml:space="preserve"
   inkscape:version="1.2.2 (732a01da63, 2022-12-09)"
   xmlns:inkscape="http://www.inkscape.org/namespaces/inkscape"
   xmlns:sodipodi="http://sodipodi.sourceforge.net/DTD/sodipodi-0.dtd"
   xmlns="http://www.w3.org/2000/svg"
   xmlns:svg="http://www.w3.org/2000/svg"><sodipodi:namedview
     id="namedview311"
     pagecolor="#ffffff"
     bordercolor="#000000"
     borderopacity="0.25"
     inkscape:showpageshadow="2"
     inkscape:pageopacity="0.0"
     inkscape:pagecheckerboard="0"
     inkscape:deskcolor="#d1d1d1"
     showgrid="false"
     inkscape:zoom="7.2584632"
     inkscape:cx="77.013547"
     inkscape:cy="81.697734"
     inkscape:window-width="3840"
     inkscape:window-height="2066"
     inkscape:window-x="-11"
     inkscape:window-y="-11"
     inkscape:window-maximized="1"
     inkscape:current-layer="_レイヤー_2" /><defs
     id="defs235"><style
       id="style233">
      .cls-1 {
        stroke-width: 3.21px;
      }

      .cls-1, .cls-2, .cls-3, .cls-4, .cls-5 {
        stroke-linecap: round;
        stroke-linejoin: round;
      }

      .cls-1, .cls-2, .cls-4 {
        stroke: #e50012;
      }

      .cls-1, .cls-3 {
        fill: #fff;
      }

      .cls-2 {
        stroke-width: 4.2px;
      }

      .cls-2, .cls-4, .cls-6 {
        fill: #e50012;
      }

      .cls-3, .cls-4 {
        stroke-width: 2.42px;
      }

      .cls-3, .cls-5 {
        stroke: #fff;
      }

      .cls-5 {
        fill: none;
        stroke-width: 2.66px;
      }

      .cls-6 {
        stroke-width: 0px;
      }
    </style></defs><g
     style="fill:#000000"
     id="g333"
     transform="matrix(0.5163986,0,0,0.5163986,16.136102,10.762897)"><g
       id="g321">
	<g
   id="g319">
		<path
   d="M 236.062,70.277 C 224.947,64.5 212.626,62.694 199.444,64.908 184.4,67.435 170.298,74.72 158.943,80.584 c -3.835,1.979 -7.455,3.851 -10.721,5.336 -1.468,0.67 -2.826,1.112 -4.044,1.317 -2.854,0.479 -4.845,-0.327 -6.083,-2.462 -3.323,-5.721 -3.104,-19.211 4.01,-26.125 0.508,-0.493 0.508,-1.304 -0.003,-1.846 -0.499,-0.527 -1.356,-0.626 -1.928,-0.197 -1.915,1.441 -4.288,2.432 -6.863,2.865 -4.495,0.754 -9.191,-0.227 -12.559,-2.626 -2.737,-1.952 -4.427,-4.716 -4.884,-7.995 -0.101,-0.732 -0.804,-1.284 -1.563,-1.23 -0.775,0.054 -1.314,0.692 -1.232,1.424 0.65,5.78 -2.178,25.02 -11.104,29.953 -2.06,1.138 -4.07,-0.201 -4.07,-0.201 C 94.702,76.781 90.26,68.757 89.764,67.849 84.977,59.081 78.422,47.078 67.82,36.278 55.305,23.528 39.654,15.228 21.306,11.608 c -0.714,-0.141 -1.404,0.272 -1.583,0.916 -0.184,0.666 0.193,1.372 0.875,1.645 4.573,1.825 13.094,7.328 16.022,16.37 2.313,7.139 0.471,14.763 -5.474,22.658 -0.327,0.436 -0.338,1.024 -0.026,1.499 0.311,0.477 0.875,0.735 1.439,0.661 11.13,-1.461 15.726,2.577 17.298,6.364 4.879,11.759 -2.65,15.871 -2.65,15.871 -0.643,0.356 -0.858,0.923 -0.669,1.536 0.195,0.629 0.826,1.059 1.498,1.021 10.236,-0.571 30.378,9.618 43.107,21.803 8.75,8.379 13.327,16.995 12.888,24.263 -0.039,0.63 0.378,1.213 1.015,1.418 0.621,0.201 1.313,-0.046 1.621,-0.566 3.495,-5.875 11.885,-10.196 23.628,-12.169 9.821,-1.649 21.245,-1.552 31.339,0.266 9.852,1.774 17.163,5.054 19.565,8.771 0.363,0.565 1.104,0.827 1.741,0.596 0.637,-0.229 0.979,-0.868 0.813,-1.521 -1.035,-4.088 -0.159,-8.504 2.465,-12.433 2.859,-4.277 7.401,-7.307 12.154,-8.105 3.127,-0.525 6.163,-0.091 9.021,1.288 0.488,0.236 1.09,0.185 1.501,-0.134 0.416,-0.321 0.587,-0.858 0.438,-1.368 -1.408,-4.818 -0.403,-10.246 2.828,-15.289 4.567,-7.125 12.757,-12.45 21.37,-13.897 0.701,-0.119 1.41,-0.209 2.107,-0.275 0.604,-0.055 1.091,-0.495 1.188,-1.065 0.099,-0.582 -0.209,-1.166 -0.763,-1.455 z"
   id="path313" />
		<path
   d="m 140.965,127.705 c -8.191,0.52 -15.716,3.676 -22.363,9.38 -7.586,6.509 -13.035,15.37 -17.421,22.502 -1.482,2.408 -2.88,4.684 -4.209,6.622 -0.597,0.873 -1.21,1.581 -1.823,2.106 -1.44,1.235 -2.829,1.457 -4.247,0.678 -3.801,-2.085 -8.243,-9.729 -6.592,-16.016 0.118,-0.449 -0.156,-0.904 -0.626,-1.035 -0.458,-0.127 -0.973,0.107 -1.148,0.541 -0.587,1.458 -1.583,2.816 -2.882,3.932 -2.267,1.943 -5.234,2.982 -7.935,2.775 -2.196,-0.169 -4.08,-1.147 -5.446,-2.833 -0.304,-0.377 -0.886,-0.448 -1.293,-0.162 -0.417,0.293 -0.503,0.833 -0.21,1.217 2.321,3.022 7.245,14.775 3.906,20.564 -0.771,1.335 -2.352,1.265 -2.352,1.265 -2.477,-0.049 -7.684,-3.048 -8.27,-3.39 -5.653,-3.299 -13.394,-7.816 -22.997,-10.288 -11.338,-2.919 -22.929,-2.279 -34.449,1.899 -0.448,0.162 -0.696,0.628 -0.578,1.05 0.122,0.436 0.572,0.704 1.047,0.626 3.184,-0.523 9.827,-0.319 14.531,3.763 3.713,3.225 5.26,8.125 4.597,14.566 -0.036,0.354 0.157,0.688 0.492,0.85 0.336,0.163 0.74,0.117 1.032,-0.116 5.75,-4.587 9.696,-3.876 11.86,-2.282 6.717,4.946 3.884,9.802 3.884,9.802 -0.24,0.417 -0.169,0.809 0.145,1.088 0.322,0.287 0.822,0.315 1.186,0.066 5.551,-3.785 20.301,-4.885 31.567,-2.355 7.746,1.741 13.23,5.026 15.443,9.253 0.191,0.367 0.623,0.553 1.049,0.452 0.417,-0.097 0.721,-0.47 0.718,-0.866 -0.027,-4.479 3.218,-9.744 9.14,-14.825 4.953,-4.25 11.396,-8.061 17.675,-10.457 6.127,-2.338 11.341,-2.973 13.946,-1.698 0.396,0.193 0.9,0.09 1.18,-0.255 0.278,-0.346 0.255,-0.819 -0.059,-1.13 -1.964,-1.942 -2.967,-4.718 -2.824,-7.81 0.157,-3.368 1.681,-6.604 4.077,-8.662 1.577,-1.353 3.428,-2.137 5.497,-2.33 0.354,-0.033 0.674,-0.266 0.797,-0.583 0.125,-0.32 0.039,-0.68 -0.218,-0.916 -2.42,-2.227 -3.693,-5.612 -3.587,-9.536 0.151,-5.543 2.944,-11.303 7.288,-15.029 0.353,-0.304 0.72,-0.596 1.09,-0.868 0.32,-0.236 0.444,-0.646 0.305,-1 -0.143,-0.359 -0.513,-0.582 -0.923,-0.555 z"
   id="path315" />
		<path
   d="m 220.366,205.274 c -6.166,-1.559 -12.771,-1.144 -18.087,-0.811 -1.795,0.111 -3.491,0.219 -4.986,0.239 -0.673,0.01 -1.266,-0.05 -1.764,-0.177 -1.17,-0.295 -1.794,-0.937 -1.909,-1.959 -0.309,-2.741 2.038,-7.853 5.912,-9.298 0.277,-0.104 0.413,-0.413 0.309,-0.705 -0.102,-0.285 -0.413,-0.467 -0.702,-0.397 -0.973,0.229 -2.044,0.209 -3.101,-0.059 -1.842,-0.466 -3.47,-1.628 -4.352,-3.107 -0.718,-1.204 -0.899,-2.543 -0.523,-3.871 0.084,-0.296 -0.092,-0.625 -0.39,-0.732 -0.307,-0.108 -0.618,0.044 -0.71,0.336 -0.722,2.315 -5.027,9.185 -9.263,9.57 -0.977,0.089 -1.52,-0.76 -1.52,-0.76 -0.882,-1.307 -1.232,-5.113 -1.27,-5.542 -0.355,-4.149 -0.845,-9.83 -3.08,-15.729 -2.638,-6.966 -7.22,-12.758 -13.614,-17.218 -0.249,-0.173 -0.582,-0.131 -0.758,0.084 -0.183,0.223 -0.156,0.556 0.058,0.774 1.438,1.464 3.769,4.992 3.37,8.935 -0.315,3.113 -2.296,5.714 -5.89,7.729 -0.197,0.112 -0.301,0.335 -0.261,0.568 0.039,0.234 0.21,0.427 0.438,0.494 4.493,1.309 5.569,3.621 5.534,5.33 -0.11,5.307 -3.674,5.613 -3.674,5.613 -0.305,0.027 -0.481,0.208 -0.513,0.475 -0.031,0.272 0.137,0.542 0.4,0.641 4.002,1.499 9.98,8.767 12.796,15.552 1.934,4.666 2.234,8.722 0.849,11.422 -0.121,0.233 -0.06,0.526 0.149,0.711 0.203,0.181 0.509,0.203 0.714,0.056 2.319,-1.656 6.246,-1.897 11.06,-0.682 4.025,1.018 8.368,2.971 11.916,5.356 3.462,2.329 5.703,4.809 5.996,6.63 0.044,0.277 0.283,0.502 0.564,0.521 0.281,0.019 0.52,-0.167 0.565,-0.444 0.29,-1.733 1.365,-3.271 3.026,-4.332 1.808,-1.152 4.05,-1.547 5.998,-1.055 1.282,0.324 2.368,0.999 3.226,2.004 0.147,0.172 0.387,0.253 0.597,0.201 0.213,-0.053 0.367,-0.229 0.396,-0.449 0.271,-2.075 1.564,-3.978 3.645,-5.359 2.938,-1.954 6.957,-2.612 10.486,-1.721 0.287,0.072 0.573,0.156 0.851,0.249 0.239,0.08 0.5,-0.006 0.632,-0.208 0.135,-0.206 0.115,-0.479 -0.048,-0.683 -3.269,-4.07 -7.667,-6.826 -13.072,-8.192 z"
   id="path317" />
	</g>
</g></g></svg>
